<svg xmlns="http://www.w3.org/2000/svg" viewBox="0 0 64 64" role="img" aria-label="Ink Morrow">
  <defs>
    <linearGradient id="ground" x1="0" y1="0" x2="1" y2="1">
      <stop offset="0" stop-color="#171020"/>
      <stop offset="1" stop-color="#09060D"/>
    </linearGradient>
    <linearGradient id="gold" x1="0" y1="0" x2="1" y2="1">
      <stop offset="0" stop-color="#F0D69A"/>
      <stop offset="1" stop-color="#A9823F"/>
    </linearGradient>
  </defs>
  <rect x="1.5" y="1.5" width="61" height="61" rx="13" fill="url(#ground)" stroke="#6D397F" stroke-width="3"/>
  <path d="M8 31c1-10 3-18 7-25l11 11c4-2 8-2 12 0L49 6c4 7 6 15 7 25"
        fill="none" stroke="url(#gold)" stroke-width="4.2" stroke-linecap="round" stroke-linejoin="round"/>
  <path d="M32 15c6 7 8 13 6 19-1 5-3 9-6 14-3-5-5-9-6-14-2-6 0-12 6-19Z"
        fill="#D9BD78" stroke="#F0D69A" stroke-width="1.4"/>
  <path d="M32 21v23m-5-10 5 6 5-6" fill="none" stroke="#100A16" stroke-width="3.2" stroke-linecap="round" stroke-linejoin="round"/>
  <path d="M5 39c10-3 19-1 27 6 8-7 17-9 27-6l-3 17c-9-2-17 0-24 6-7-6-15-8-24-6L5 39Z"
        fill="#6E1834" stroke="#E0C584" stroke-width="2.8" stroke-linejoin="round"/>
  <path d="M32 45v17" stroke="#C7A35B" stroke-width="1.7" stroke-linecap="round"/>
  <circle cx="32" cy="45" r="1.6" fill="#69D9CB"/>
</svg>
